<?xml version="1.0" standalone="no"?><!DOCTYPE svg PUBLIC "-//W3C//DTD SVG 1.1//EN" "http://www.w3.org/Graphics/SVG/1.1/DTD/svg11.dtd"><svg t="1580659924697" class="icon" viewBox="0 0 1024 1024" version="1.1" xmlns="http://www.w3.org/2000/svg" p-id="1461" xmlns:xlink="http://www.w3.org/1999/xlink" width="200" height="200"><defs><style type="text/css"></style></defs><path d="M960.78998657 721.89523056h-378.78232453c-8.4315793 0-15.58564646-6.89856611-15.7133987-15.33014199v-36.40909371c0.12775226-8.4315793 7.15406719-15.45789765 15.7133987-15.33014545h378.78232453c8.4315793 0 15.45789765 6.89856611 15.58564991 15.33014545v36.40909371c-0.12775226 8.4315793-7.02631498 15.33014542-15.58564991 15.33014199z m0 134.5220224h-378.78232453c-8.4315793 0-15.58564646-6.89856611-15.7133987-15.33014541v-36.40909367c0.12775226-8.4315793 7.15406719-15.45789765 15.7133987-15.33014551h378.78232453c8.4315793 0 15.45789765 6.89856611 15.58564991 15.33014551v36.28134135c-0.12775226 8.4315793-7.02631498 15.45789765-15.58564991 15.45789773z m0 134.52201894h-378.78232453c-8.4315793 0-15.58564646-6.89856611-15.7133987-15.33014539v-36.40909373c0.12775226-8.4315793 7.15406719-15.45789765 15.7133987-15.33014199h378.78232453c8.4315793 0 15.45789765 6.89856611 15.58564991 15.33014199v36.28134492c-0.12775226 8.55933152-7.02631498 15.33014542-15.58564991 15.4578942z m-462.71486765-342.11772972l-0.12775225 57.87129516c0 5.74880281-4.72679517 10.22009698-10.475598 9.96459591-105.52249696-5.36554956-189.71054113-91.59761586-189.71054114-196.7368595 0-108.58852667 89.80909818-196.99236058 200.18613914-196.99236051 110.37704089 0 200.05839033 88.40383385 200.05839033 196.99236051 0 20.56794271-3.19377863 41.00813663-9.58134259 60.55407172a10.01569405 10.01569405 0 0 1-9.45358692 6.77081386h-53.14450351c-7.28181938 0-12.13636346-7.53732047-9.07033369-14.18038209 7.79282495-16.60765755 11.75311009-34.74832825 11.75311018-53.14450349 0-70.77416863-58.76555405-128.51771508-130.81723483-128.51771165-71.92392851 0-130.68948263 57.61579415-130.68948601 128.51771165 0.25550102 71.15742198 58.8933063 128.77321607 131.07273929 128.90096843z m-16.60765758 273.64308423c4.34354187-0.12775226 8.4315793 1.66076539 11.75311016 4.59904298 3.06602977 3.06602977 4.85454745 7.28181938 4.85454742 11.62536129v35.77033591c-0.12775226 8.94258482-7.40957167 16.22440421-16.47990531 16.22440426h-65.28086689c-30.91579188 0.38325328-56.84928758-23.76172475-58.63780524-54.54976441v-0.63875774l-8.68708034-63.10909596c-0.51100549-3.44928307-2.81052531-6.38756059-6.00430733-7.79282154-25.03923685-10.85885133-48.67320935-24.27273024-70.77416864-40.11388119-2.81052531-2.0440187-6.38756059-2.42727199-9.58133919-1.14975995l-59.91531736 24.14497808c-0.25550102 0.12775226-0.38325328 0.12775226-0.63875437 0.25550102-27.72201333 13.79712884-61.44833052 4.0880374-77.41723374-22.61196141l-82.01627321-139.24881416c-15.58564646-26.57225006-7.40957167-60.80957276 18.77942843-77.28948146 0.25550102-0.12775226 0.38325328-0.25550102 0.63875438-0.38325329l51.22823359-38.96411794c2.81052531-2.17177099 4.21578964-5.62105401 3.83253633-9.19808589-3.06602977-26.57225006-3.06602977-53.40000451 0-79.97225801 0.38325328-3.57703531-1.02201109-7.02631498-3.83253633-9.19808587l-51.10048134-38.96411797c-0.25550102-0.12775226-0.38325328-0.25550102-0.63875777-0.38325323-25.93349567-16.35215307-34.23732277-50.33397472-18.90717729-76.90622482l81.88852441-139.37656636c15.84115092-26.70000228 49.56746819-36.40909366 77.28947806-22.73971706 0.12775226 0.12775226 0.38325328 0.12775226 0.63875778 0.25550442l60.04306618 24.14497806c3.19377863 1.27751206 6.77081388 0.76650659 9.58133919-1.2775121 21.97320706-15.96889981 45.86268403-29.25502647 70.77416866-40.11388127 3.19377863-1.40526435 5.49330178-4.34354187 6.00430729-7.79282148l8.68708381-62.98134374v-0.63875781c1.78851765-30.91579188 27.59426113-55.06076993 58.51005298-54.67751664H579.7081389c31.29904521 0 56.84928758 23.88947696 58.51005304 54.54976441 0 0.25550102 0 0.51100549 0.12775219 0.76651004l8.68708033 63.10909594c0.51100549 3.44928307 2.81052531 6.38756059 6.00430735 7.79282154 25.03923685 10.85885133 48.80096158 24.27273024 70.90192085 40.11387784 2.81052531 2.0440187 6.38756059 2.42727199 9.58133924 1.14976327l60.04306618-24.01722918c0.25550102-0.12775226 0.38325328-0.12775226 0.51100549-0.2555011 27.72201333-13.66938006 61.44833052-3.9602886 77.28948152 22.61196486l81.63301999 139.24881412c15.58564646 26.57225006 7.53732047 60.68182396-18.65167628 77.28947807-0.25550102 0.12775226-0.38325328 0.25550102-0.63875776 0.38325673l-50.97272916 38.8363657a10.04124314 10.04124314 0 0 0-3.83253633 9.07033363c3.06602977 26.57225006 3.06602977 53.52775677 0 80.10000685-0.38325328 3.57703531 1.02201109 7.02631498 3.83253633 9.19808923l0.25550112 0.12774884c7.53732047 5.74880281 3.44928307 17.8851697-6.00430731 17.8851697h-60.6818206c-6.25980836 0-10.98660354-5.62105401-9.83684363-11.88086236l0.25550112-1.14975992c6.89856611-35.77033932 6.89856611-72.94593961 0-108.84402773l-2.55502427-14.18038557c-0.63875438-3.70478412 0.76650659-7.40957167 3.70478412-9.70909141l73.45694513-55.95502876c3.9602886-3.06602977 5.11004846-8.55933152 2.55502422-13.03062225l-64.131107-109.35503328c-2.55502431-4.34354187-7.92057375-6.13205954-12.51961675-4.08803746l-85.2100552 36.02584045c-3.44928307 1.40526435-7.40957167 0.89425881-10.34784577-1.53301662l-11.4976091-9.70909135c-28.48851991-23.6339725-60.93732498-42.03014769-95.81340552-54.16651122l-14.0526333-5.11004843c-3.44928307-1.27751206-6.00430732-4.34354187-6.51531279-8.04832601l-12.77511779-90.44785257c-0.63875438-4.98229623-4.85454745-8.55933152-9.83684363-8.55933154h-126.98469855c-4.98229623 0-9.19808591 3.70478412-9.83684364 8.55933154l-12.51962014 90.70335704c-0.51100549 3.70478412-3.06602977 6.77081388-6.51530946 8.04832595l-13.92488104 5.11004853c-35.0038293 12.26411572-67.45263786 30.66029086-95.94115772 54.29425996l-11.49760902 9.58134254c-2.81052531 2.29952314-6.64306166 2.93827751-10.09234477 1.53301323l-86.23206292-34.74832826c-4.59904297-1.78851765-9.83684366 0-12.26411567 4.21578963l-63.36460042 107.82202011c-2.55502431 4.34354187-1.40526435 9.96459247 2.55502419 13.0306222l73.4569452 55.95502885c2.93827751 2.29952314 4.4712907 6.00430732 3.70478415 9.70909135l-2.55502428 14.30813445c-3.32153084 17.8851697-5.11004846 36.02584036-5.23779731 54.29426326 0.12775226 18.26842293 1.91626647 36.53684596 5.11004506 54.42201567l2.55502425 14.30813432c0.63875438 3.70478412-0.76650659 7.40957167-3.83253635 9.70909142l-73.32918948 55.95502876c-3.9602886 3.06602977-5.11004846 8.68708038-2.55502429 13.03062225l64.38660812 109.3550333c2.55502431 4.34354187 7.92057375 6.13205954 12.51961674 4.08803743l85.08230301-36.02584045c3.44928307-1.40526435 7.40957167-0.89425881 10.22009694 1.53301661l11.62536133 9.58133919c28.48851991 23.6339725 60.93732498 42.03014769 95.81340209 54.1665112l13.92488452 4.9822962c3.44928307 1.27751206 6.00430732 4.34354187 6.51530937 8.04832598l12.51962013 90.70335704c0.63875438 4.98229623 4.85454745 8.55933152 9.83684026 8.55933152h47.14019611z m0 0" fill="#ffffff" p-id="1462"></path></svg>