<?xml version="1.0" standalone="no"?><!DOCTYPE svg PUBLIC "-//W3C//DTD SVG 1.1//EN" "http://www.w3.org/Graphics/SVG/1.1/DTD/svg11.dtd"><svg t="1580659927714" class="icon" viewBox="0 0 1024 1024" version="1.1" xmlns="http://www.w3.org/2000/svg" p-id="1594" xmlns:xlink="http://www.w3.org/1999/xlink" width="200" height="200"><defs><style type="text/css"></style></defs><path d="M887.466667 64H136.533333c-38.4 0-72.533333 34.133333-72.533333 72.533333V341.333333c0 93.866667 76.8 174.933333 174.933333 174.933334 55.466667 0 106.666667-25.6 136.533334-68.266667 29.866667 42.666667 81.066667 68.266667 136.533333 68.266667 55.466667 0 106.666667-25.6 136.533333-68.266667 29.866667 42.666667 81.066667 68.266667 136.533334 68.266667 93.866667 0 174.933333-76.8 174.933333-174.933334V136.533333c0-38.4-34.133333-72.533333-72.533333-72.533333zM337.066667 238.933333V341.333333c0 55.466667-46.933333 102.4-102.4 102.4S136.533333 396.8 136.533333 341.333333V136.533333H341.333333v102.4z m174.933333 200.533334c-55.466667 0-102.4-46.933333-102.4-102.4V136.533333h200.533333v217.6c-4.266667 46.933333-46.933333 85.333333-98.133333 85.333334zM887.466667 341.333333c0 55.466667-46.933333 102.4-102.4 102.4S686.933333 396.8 686.933333 341.333333V136.533333h204.8V341.333333zM861.866667 605.866667c-21.333333 0-34.133333 17.066667-34.133334 34.133333v247.466667H200.533333V640c0-21.333333-17.066667-34.133333-34.133333-34.133333s-38.4 12.8-38.4 34.133333v247.466667c0 38.4 34.133333 72.533333 72.533333 72.533333h622.933334c38.4 0 72.533333-34.133333 72.533333-72.533333V640c0-21.333333-17.066667-34.133333-34.133333-34.133333z" fill="#ffffff" p-id="1595"></path></svg>